<mxfile host="app.diagrams.net" modified="2022-05-10T11:50:41.573Z" agent="5.0 (Windows NT 10.0; Win64; x64) AppleWebKit/537.36 (KHTML, like Gecko) Chrome/100.0.4896.60 Safari/537.36" etag="FvD5wODD_0tZyYlgYKcK" version="18.0.2" type="github">
  <diagram id="608CH187DPTVNdJfVMNv" name="Page-1">
    <mxGraphModel dx="684" dy="607" grid="1" gridSize="10" guides="1" tooltips="1" connect="1" arrows="1" fold="1" page="1" pageScale="1" pageWidth="827" pageHeight="1169" math="0" shadow="0">
      <root>
        <mxCell id="0" />
        <mxCell id="1" parent="0" />
        <mxCell id="gNuToTz50rdkRoEPC9Cn-6" value="" style="edgeStyle=orthogonalEdgeStyle;rounded=0;orthogonalLoop=1;jettySize=auto;html=1;" edge="1" parent="1" source="gNuToTz50rdkRoEPC9Cn-1" target="gNuToTz50rdkRoEPC9Cn-2">
          <mxGeometry relative="1" as="geometry" />
        </mxCell>
        <mxCell id="gNuToTz50rdkRoEPC9Cn-1" value="inicio" style="ellipse;whiteSpace=wrap;html=1;fillColor=#dae8fc;strokeColor=#6c8ebf;" vertex="1" parent="1">
          <mxGeometry x="320" y="40" width="160" height="80" as="geometry" />
        </mxCell>
        <mxCell id="gNuToTz50rdkRoEPC9Cn-8" value="" style="edgeStyle=orthogonalEdgeStyle;rounded=0;orthogonalLoop=1;jettySize=auto;html=1;" edge="1" parent="1" source="gNuToTz50rdkRoEPC9Cn-2" target="gNuToTz50rdkRoEPC9Cn-3">
          <mxGeometry relative="1" as="geometry" />
        </mxCell>
        <mxCell id="gNuToTz50rdkRoEPC9Cn-2" value="horas,min,seg,temp" style="shape=parallelogram;perimeter=parallelogramPerimeter;whiteSpace=wrap;html=1;fixedSize=1;fillColor=#f8cecc;strokeColor=#b85450;" vertex="1" parent="1">
          <mxGeometry x="310" y="170" width="180" height="60" as="geometry" />
        </mxCell>
        <mxCell id="gNuToTz50rdkRoEPC9Cn-9" value="" style="edgeStyle=orthogonalEdgeStyle;rounded=0;orthogonalLoop=1;jettySize=auto;html=1;" edge="1" parent="1" source="gNuToTz50rdkRoEPC9Cn-3" target="gNuToTz50rdkRoEPC9Cn-4">
          <mxGeometry relative="1" as="geometry" />
        </mxCell>
        <mxCell id="gNuToTz50rdkRoEPC9Cn-3" value="temp=(min/60)+horas" style="rounded=0;whiteSpace=wrap;html=1;fillColor=#d5e8d4;strokeColor=#82b366;" vertex="1" parent="1">
          <mxGeometry x="320" y="280" width="160" height="60" as="geometry" />
        </mxCell>
        <mxCell id="gNuToTz50rdkRoEPC9Cn-10" value="" style="edgeStyle=orthogonalEdgeStyle;rounded=0;orthogonalLoop=1;jettySize=auto;html=1;" edge="1" parent="1" source="gNuToTz50rdkRoEPC9Cn-4" target="gNuToTz50rdkRoEPC9Cn-5">
          <mxGeometry relative="1" as="geometry" />
        </mxCell>
        <mxCell id="gNuToTz50rdkRoEPC9Cn-4" value="tempo em segundos&amp;nbsp;" style="shape=document;whiteSpace=wrap;html=1;boundedLbl=1;fillColor=#fff2cc;strokeColor=#d6b656;" vertex="1" parent="1">
          <mxGeometry x="320" y="390" width="160" height="80" as="geometry" />
        </mxCell>
        <mxCell id="gNuToTz50rdkRoEPC9Cn-5" value="fim" style="ellipse;whiteSpace=wrap;html=1;fillColor=#dae8fc;strokeColor=#6c8ebf;" vertex="1" parent="1">
          <mxGeometry x="320" y="520" width="160" height="80" as="geometry" />
        </mxCell>
      </root>
    </mxGraphModel>
  </diagram>
</mxfile>
